<svg width="154" height="29" viewBox="0 0 154 29" fill="none" xmlns="http://www.w3.org/2000/svg">
<g clip-path="url(#clip0)">
<path d="M19.691 12.3237C23.4191 9.28211 31.0327 -1.6781 19.1134 0.262222C13.9151 1.04884 6.30149 6.0832 4.77876 11.9042C3.99114 10.3309 3.09851 8.86258 2.15336 7.39423C0.68314 5.40146 -0.944607 6.9747 0.630632 8.96747C5.30018 14.6138 7.99244 21.6306 8.29679 28.9476C8.66435 25.434 8.08676 21.1338 6.66905 16.9385C7.35165 17.1483 8.13927 17.2532 8.82187 17.2532C11.2372 21.2387 14.9653 24.6474 19.1134 26.2206C22.9465 27.7414 28.0398 26.8499 25.9395 20.7143C24.8368 17.3581 22.2639 14.4214 19.691 12.3237ZM20.2161 1.67814C26.8321 0.943958 19.7435 9.17723 17.4332 10.698C15.2804 9.28211 12.5499 8.02352 9.92454 8.39061C11.8148 5.92588 16.4355 2.15011 20.2161 1.67814ZM9.87203 10.1736C11.6573 10.0163 13.6001 11.0127 15.1228 12.0615C13.6526 12.7957 12.0774 13.2152 10.4496 13.3725C8.03425 13.3725 7.50917 10.3834 9.87203 10.1736ZM19.0084 22.9693C15.9104 22.0778 12.97 19.5606 10.8697 17.0434C12.6024 16.6763 14.3352 15.9946 15.9104 15.0506C16.488 14.7884 17.0656 14.3689 17.5907 14.0018C19.4285 15.6799 21.3713 17.9349 22.1064 20.5045C22.8415 23.2839 20.8462 23.4937 19.0084 22.9693Z" fill="#F5A623"/>
<path d="M45.0511 5.40154H36.0197C35.7047 5.40154 35.4422 5.66374 35.4422 5.97839H35.3896V20.1375C35.3896 20.4522 35.6522 20.7144 35.9672 20.7144C36.2298 20.7144 36.4923 20.4522 36.5448 20.1375V13.7397H44.211C44.526 13.7397 44.6836 13.4775 44.6836 13.2153C44.6836 12.9006 44.4735 12.7433 44.211 12.7433H36.4923V6.5028H45.0511C45.3662 6.5028 45.5237 6.2406 45.5237 5.97839C45.5237 5.82107 45.3662 5.6113 45.0511 5.40154ZM49.1992 4.66736H49.1467C48.8842 4.66736 48.7267 4.87712 48.7267 5.13933V20.0851C48.7267 20.3997 48.9367 20.6095 49.1992 20.6095C49.5143 20.6095 49.6718 20.3473 49.6718 20.0851V5.24421C49.6718 4.87712 49.5143 4.66736 49.1992 4.66736ZM62.2737 10.0164C62.2737 9.70172 62.0637 9.49195 61.8012 9.49195C61.4861 9.49195 61.3286 9.75416 61.3286 10.0164V16.2569C61.3286 18.3545 59.7008 20.0326 57.7055 19.9802C55.6052 19.9802 54.3975 18.5118 54.3975 16.2044V10.0164C54.3975 9.70172 54.1875 9.49195 53.925 9.49195C53.7149 9.49195 53.4524 9.75416 53.4524 10.0164V16.3618C53.4524 18.9838 55.0276 20.9241 57.6005 20.9241C59.1758 20.9766 60.646 20.0851 61.3811 18.6167V20.2424C61.3811 20.557 61.6436 20.7144 61.8537 20.7144C62.1687 20.7144 62.3262 20.4522 62.3262 20.2424H62.2737V10.0164ZM70.9376 10.5408C71.1476 10.5408 71.4101 10.331 71.4101 10.0688C71.4101 9.85904 71.1476 9.59683 70.9376 9.59683H67.6296V6.5028C67.6296 6.2406 67.367 5.97839 67.157 5.97839H67.1045C66.8419 5.97839 66.6844 6.2406 66.6844 6.5028V9.59683H65.5292C65.2667 9.59683 65.0567 9.75416 65.0567 10.0164C65.0567 10.2786 65.2667 10.5408 65.5292 10.5408H66.6844V17.7777C66.6844 19.8229 67.9971 20.8193 69.5198 20.8193C70.0449 20.8193 70.57 20.7144 71.0426 20.557C71.2001 20.4522 71.3576 20.2948 71.3576 20.0851C71.3576 19.8229 71.1476 19.6655 70.9376 19.6655C70.57 19.7704 70.1499 19.8229 69.7299 19.8229C68.4697 19.8229 67.6296 19.246 67.6296 17.6728V10.5408H70.9376ZM79.0763 10.5408C79.3388 10.5408 79.5489 10.331 79.5489 10.0688C79.5489 9.85904 79.3388 9.59683 79.0763 9.59683H75.7683V6.5028C75.7683 6.2406 75.5583 5.97839 75.2957 5.97839H75.2432C74.9807 5.97839 74.8231 6.2406 74.8231 6.5028V9.59683H73.668C73.4579 9.59683 73.1954 9.75416 73.1954 10.0164C73.1954 10.2786 73.4579 10.5408 73.668 10.5408H74.8231V17.7777C74.8231 19.8229 76.1358 20.8193 77.7111 20.8193C78.1837 20.8193 78.7087 20.7144 79.1813 20.557C79.3913 20.4522 79.4964 20.2948 79.4964 20.0851C79.4964 19.8229 79.3388 19.6655 79.0763 19.6655C78.7087 19.7704 78.2887 19.8229 77.8686 19.8229C76.6084 19.8229 75.7683 19.246 75.7683 17.6728V10.5408H79.0763ZM86.2699 9.28219C83.487 9.28219 81.3866 11.7994 81.3866 15.1032V15.1556C81.3866 18.6692 83.697 20.9766 86.4799 20.9766C87.9501 21.029 89.4729 20.3997 90.4705 19.1936C90.628 19.0887 90.6806 18.9314 90.6806 18.8265C90.6806 18.5643 90.418 18.3021 90.208 18.3021L89.8929 18.407C89.4764 18.892 88.9613 19.2831 88.382 19.5543C87.8026 19.8255 87.1722 19.9707 86.5324 19.9802C84.4846 19.9802 82.6468 18.3545 82.4368 15.6276H90.628C90.8381 15.6276 91.1006 15.3654 91.1006 15.1032C91.1006 11.7994 89.2103 9.28219 86.2699 9.28219ZM82.3843 14.5787C82.5418 12.1665 84.1696 10.2786 86.2174 10.2786C88.5802 10.2786 89.8404 12.3238 89.9454 14.5787H82.3843ZM99.1343 9.43951C97.2441 9.59683 95.6688 10.9079 94.9862 12.7957V10.0688C94.9862 9.85904 94.7237 9.59683 94.5136 9.59683C94.1986 9.59683 94.0411 9.75416 93.9886 10.0688V20.3473C93.9886 20.6095 94.1986 20.8717 94.4611 20.8717C94.7237 20.8717 94.9337 20.6619 94.9862 20.3473V16.2569C94.9862 12.6384 96.929 10.9079 99.1343 10.6457H99.1869C99.5019 10.6457 99.6594 10.331 99.6594 10.0688C99.6594 9.70172 99.4494 9.43951 99.1343 9.43951Z" fill="black"/>
<path d="M116.83 8.86251C116.147 8.86251 115.517 9.38692 115.36 10.1211L113.574 16.0994L111.842 10.1211C111.684 9.38692 111.002 8.81007 110.214 8.81007H110.056C109.269 8.81007 108.586 9.28204 108.429 10.1211L106.696 15.9945L105.016 10.0687C104.806 9.38692 104.228 8.81007 103.493 8.81007H103.44C102.653 8.81007 102.075 9.4918 102.075 10.3309L102.18 11.1175L104.858 19.3508C105.068 20.1898 105.751 20.7667 106.591 20.8191H106.696C107.484 20.8191 108.114 20.2423 108.376 19.4032L110.109 13.5298L111.842 19.4032C112.052 20.2423 112.734 20.8191 113.522 20.8191H113.679C114.52 20.8191 115.202 20.2423 115.412 19.3508L118.09 11.0126L118.248 10.3833V10.3309C118.248 9.4918 117.618 8.86251 116.83 8.86251ZM124.549 8.86251C123.341 8.81007 122.186 9.07227 121.031 9.43936C120.558 9.64913 120.295 10.1211 120.295 10.6979C120.295 11.4846 120.873 12.0614 121.608 12.009C121.713 12.009 121.871 12.009 122.028 11.9041C122.711 11.6943 123.446 11.5895 124.181 11.5895C125.756 11.5895 126.544 12.3236 126.544 13.7395V13.8969C125.704 13.5822 124.759 13.4773 123.866 13.4773C121.293 13.4773 119.508 14.6835 119.508 17.2531C119.508 19.5081 121.241 20.8191 123.236 20.8191C124.496 20.8715 125.704 20.2947 126.544 19.3508C126.596 20.1898 127.227 20.7667 128.014 20.7667C128.854 20.7667 129.537 20.0325 129.537 19.141V13.8969C129.589 12.5858 129.169 11.2224 128.329 10.226C127.437 9.38692 126.229 8.86251 124.549 8.86251ZM126.596 16.4665C126.596 17.7251 125.546 18.5117 124.129 18.4593C123.131 18.4593 122.448 17.9348 122.448 17.0433V16.9909C122.448 15.9945 123.288 15.3652 124.601 15.3652C125.231 15.3652 125.966 15.575 126.596 15.8372V16.4665ZM140.196 8.81007C139.566 8.81007 138.936 9.2296 138.778 9.96377L136.363 16.7287L134.053 10.0162C133.843 9.28204 133.265 8.81007 132.53 8.81007C131.742 8.81007 131.112 9.43936 131.007 10.3309C131.007 10.5931 131.112 10.8553 131.217 11.1175L134.578 19.3508C134.788 20.1898 135.47 20.7667 136.31 20.8191H136.52C137.256 20.7667 137.991 20.2423 138.306 19.4032L141.561 11.1699L141.719 10.3833V10.3309C141.719 9.4918 141.089 8.81007 140.196 8.81007ZM148.335 8.75762C145.132 8.75762 142.926 11.4846 142.926 14.7884V15.3128C143.031 18.5117 145.657 20.9764 148.65 20.8191C150.015 20.8191 151.328 20.3471 152.43 19.4032C152.745 19.141 152.85 18.8263 152.85 18.4593V18.4068C152.85 17.6726 152.325 17.0958 151.643 17.0958C151.38 17.0958 151.118 17.1482 150.908 17.358C150.296 17.8843 149.51 18.1647 148.702 18.1446C147.39 18.197 146.234 17.2531 146.077 15.8372H152.22C153.008 15.7847 153.638 15.0506 153.586 14.2115V13.9493C153.586 11.1175 151.223 8.65274 148.335 8.75762ZM145.972 13.8969C146.234 12.3761 147.075 11.4321 148.335 11.4321C149.595 11.4321 150.435 12.4285 150.593 13.8969H145.972Z" fill="black" stroke="black"/>
</g>
<defs>
<clipPath id="clip0">
<rect width="153.638" height="29" fill="white"/>
</clipPath>
</defs>
</svg>
