<svg width="24" height="24" viewBox="0 0 24 24" fill="none" xmlns="http://www.w3.org/2000/svg">
<path d="M18.6067 15.0126C18.5263 14.8796 18.313 14.7976 17.9926 14.6386C17.6722 14.4795 16.0939 13.7015 15.8012 13.5955C15.5085 13.4894 15.2923 13.4345 15.079 13.7555C14.8657 14.0765 14.2507 14.7976 14.0632 15.0088C13.8757 15.2199 13.6892 15.2498 13.3688 15.0897C12.4231 14.7137 11.5492 14.1752 10.7862 13.4981C10.0857 12.8525 9.48481 12.1051 9.00322 11.2808C8.81191 10.9607 8.98313 10.7872 9.14383 10.6271C9.48009 10.3182 9.75249 9.94536 9.94539 9.53003C9.98824 9.44165 10.0082 9.34379 10.0036 9.24554C9.99888 9.14729 9.96966 9.05182 9.91861 8.96798C9.84113 8.80891 9.19931 7.22979 8.93244 6.59158C8.63018 5.86275 7.28244 5.83769 6.74009 6.42962C5.02887 8.30086 5.42392 10.4208 6.93139 12.4212C7.09209 12.6353 9.15052 15.9796 12.4103 17.2637C15.6702 18.5478 15.6702 18.1188 16.2584 18.0648C17.9486 17.9115 19.0926 15.8253 18.6105 15.0155M12 1.00005C9.09511 0.991583 6.30553 2.14488 4.24331 4.2069C2.18109 6.26892 1.01468 9.07123 1 11.999C0.998454 14.3193 1.73276 16.5795 3.09574 18.4495L1.72218 22.5352L5.94904 21.1807C7.60271 22.2744 9.51815 22.899 11.4941 22.9887C13.47 23.0785 15.4334 22.6302 17.178 21.6908C18.9226 20.7515 20.3839 19.3559 21.4084 17.6506C22.4329 15.9453 22.9827 13.9934 23 11.9999C22.9853 9.07211 21.8189 6.2697 19.7567 4.20753C17.6946 2.14536 14.905 0.991839 12 1.00005V1.00005Z" stroke="#6D7D93" stroke-width="2" stroke-linecap="round" stroke-linejoin="round"/>
</svg>
