<svg width="53" height="53" viewBox="0 0 53 53" fill="none" xmlns="http://www.w3.org/2000/svg">
<path d="M13.25 4.41669L6.625 13.25V44.1667C6.625 45.3381 7.09033 46.4615 7.91861 47.2897C8.7469 48.118 9.87029 48.5834 11.0417 48.5834H41.9583C43.1297 48.5834 44.2531 48.118 45.0814 47.2897C45.9097 46.4615 46.375 45.3381 46.375 44.1667V13.25L39.75 4.41669H13.25Z" stroke="#FFA903" stroke-width="5" stroke-linecap="round" stroke-linejoin="round"/>
<path d="M6.625 13.25H46.375" stroke="#FFA903" stroke-width="5" stroke-linecap="round" stroke-linejoin="round"/>
<path d="M35.3337 22.0833C35.3337 24.4261 34.403 26.6729 32.7464 28.3294C31.0899 29.986 28.8431 30.9166 26.5003 30.9166C24.1576 30.9166 21.9108 29.986 20.2542 28.3294C18.5976 26.6729 17.667 24.4261 17.667 22.0833" stroke="#FFA903" stroke-width="5" stroke-linecap="round" stroke-linejoin="round"/>
</svg>
