<svg width="55" height="55" viewBox="0 0 55 55" fill="none" xmlns="http://www.w3.org/2000/svg">
<path d="M16.0413 50.4166H9.16634C7.95077 50.4166 6.78498 49.9338 5.92543 49.0742C5.06589 48.2147 4.58301 47.0489 4.58301 45.8333V29.7916C4.58301 28.5761 5.06589 27.4103 5.92543 26.5507C6.78498 25.6912 7.95077 25.2083 9.16634 25.2083H16.0413M32.083 20.625V11.4583C32.083 9.63495 31.3587 7.88627 30.0694 6.59695C28.7801 5.30764 27.0314 4.58331 25.208 4.58331L16.0413 25.2083V50.4166H41.8913C42.9967 50.4291 44.0693 50.0417 44.9115 49.3258C45.7538 48.6099 46.3089 47.6137 46.4747 46.5208L49.6372 25.8958C49.7369 25.2389 49.6926 24.5682 49.5073 23.9301C49.3221 23.2921 49.0003 22.7019 48.5644 22.2005C48.1284 21.6992 47.5886 21.2986 46.9824 21.0265C46.3763 20.7545 45.7182 20.6175 45.0538 20.625H32.083Z" stroke="#1D66FF" stroke-width="5" stroke-linecap="round" stroke-linejoin="round"/>
</svg>
