<svg width="24" height="24" viewBox="0 0 24 24" fill="none" xmlns="http://www.w3.org/2000/svg">
<path d="M23 3.00005L23.9716 3.23666C24.0702 2.83167 23.9073 2.40797 23.5627 2.1734C23.2181 1.93884 22.7642 1.94262 22.4236 2.18288L23 3.00005ZM19.86 4.53005L19.1054 5.18628C19.3636 5.48308 19.7717 5.60099 20.1483 5.48758L19.86 4.53005ZM12 7.53005H13.0001L12.9999 7.51664L12 7.53005ZM12 8.53005L12.0259 9.52971C12.5679 9.51566 13 9.07223 13 8.53005H12ZM3 4.00005L3.81836 3.42533C3.61131 3.13052 3.2617 2.96985 2.90314 3.00475C2.54458 3.03964 2.2325 3.2647 2.08619 3.59391L3 4.00005ZM8 17L8.56163 17.8274C8.86205 17.6235 9.02833 17.2728 8.99604 16.9111C8.96374 16.5494 8.73794 16.2337 8.40614 16.0862L8 17ZM1 19L1.03974 18.0008C0.577023 17.9824 0.162197 18.2841 0.0371488 18.73C-0.0878998 19.1759 0.109546 19.6493 0.514357 19.8742L1 19ZM21 7.50005H22L22 7.49674L21 7.50005ZM20.92 6.67005L20.2178 5.95804C19.9802 6.19242 19.8751 6.52994 19.9378 6.8578L20.92 6.67005ZM22.4236 2.18288C21.5538 2.79639 20.5908 3.26562 19.5717 3.57252L20.1483 5.48758C21.3734 5.11869 22.5309 4.55466 23.5764 3.81721L22.4236 2.18288ZM20.6146 3.87381C19.8779 3.02675 18.8988 2.42637 17.8098 2.15388L17.3243 4.09407C18.0159 4.26711 18.6376 4.64837 19.1054 5.18628L20.6146 3.87381ZM17.8098 2.15388C16.7207 1.88139 15.5743 1.94993 14.5255 2.35024L15.2387 4.21876C15.9047 3.96455 16.6327 3.92102 17.3243 4.09407L17.8098 2.15388ZM14.5255 2.35024C13.4767 2.75054 12.5761 3.4633 11.9456 4.3921L13.6004 5.51542C14.0008 4.9256 14.5726 4.47297 15.2387 4.21876L14.5255 2.35024ZM11.9456 4.3921C11.3151 5.32091 10.985 6.42095 11.0001 7.54345L12.9999 7.51664C12.9904 6.80381 13.2 6.10525 13.6004 5.51542L11.9456 4.3921ZM11 7.53005V8.53005H13V7.53005H11ZM11.9741 7.53038C10.3816 7.57168 8.80356 7.21848 7.3806 6.50226L6.48141 8.28872C8.19898 9.15324 10.1037 9.57955 12.0259 9.52971L11.9741 7.53038ZM7.3806 6.50226C5.95764 5.78604 4.7339 4.72901 3.81836 3.42533L2.18164 4.57476C3.28674 6.14835 4.76385 7.42421 6.48141 8.28872L7.3806 6.50226ZM3 4.00005C2.08619 3.59391 2.08597 3.59439 2.08575 3.5949C2.08565 3.59512 2.0854 3.59567 2.08521 3.59611C2.08483 3.59699 2.08438 3.598 2.08387 3.59915C2.08286 3.60145 2.08161 3.60431 2.08013 3.60771C2.07717 3.61452 2.07329 3.62351 2.06856 3.63464C2.05909 3.65689 2.04621 3.6877 2.03044 3.72663C1.99891 3.80446 1.95577 3.91493 1.90528 4.05458C1.80442 4.33355 1.67358 4.73082 1.54748 5.21841C1.29648 6.18894 1.05771 7.54233 1.12603 9.04545C1.19455 10.5529 1.57342 12.2317 2.57706 13.8163C3.58471 15.4074 5.18396 16.8428 7.59386 17.9139L8.40614 16.0862C6.31604 15.1573 5.04029 13.9677 4.26669 12.7462C3.48908 11.5184 3.18045 10.1971 3.12397 8.95464C3.06729 7.70776 3.26602 6.56115 3.48377 5.71918C3.59205 5.30052 3.70339 4.96342 3.78613 4.73458C3.82744 4.62032 3.86144 4.53352 3.88411 4.47757C3.89544 4.4496 3.90392 4.42938 3.90904 4.41733C3.9116 4.41131 3.91332 4.40734 3.91414 4.40546C3.91455 4.40452 3.91473 4.40411 3.91468 4.40422C3.91465 4.40428 3.91457 4.40448 3.91442 4.4048C3.91435 4.40497 3.9142 4.40531 3.91416 4.40539C3.91399 4.40577 3.91381 4.40618 3 4.00005ZM7.43837 16.1727C5.55583 17.4505 3.31323 18.0913 1.03974 18.0008L0.960255 19.9993C3.66109 20.1067 6.32523 19.3455 8.56163 17.8274L7.43837 16.1727ZM0.514357 19.8742C5.29087 22.5278 10.6509 22.5525 14.8448 20.3203C19.0631 18.0751 22 13.6 22 7.50005H20C20 12.9001 17.4369 16.675 13.9052 18.5548C10.3491 20.4475 5.70913 20.4723 1.48564 18.1259L0.514357 19.8742ZM22 7.49674C21.9989 7.15629 21.9661 6.81669 21.9022 6.4823L19.9378 6.8578C19.9785 7.07059 19.9993 7.2867 20 7.50335L22 7.49674ZM21.6222 7.38205C22.775 6.24517 23.5885 4.80978 23.9716 3.23666L22.0284 2.76343C21.7332 3.97574 21.1062 5.08191 20.2178 5.95804L21.6222 7.38205Z" fill="#6D7D93"/>
</svg>
