<svg width="8" height="12" viewBox="0 0 8 12" fill="none" xmlns="http://www.w3.org/2000/svg">
<path d="M7.07 3.585C7.04685 3.55865 7.01842 3.53746 6.98654 3.52281C6.95467 3.50817 6.92007 3.5004 6.885 3.5H5V2.795C5 2.655 5.03 2.495 5.255 2.495H6.755C6.78792 2.4964 6.82074 2.49039 6.85103 2.47741C6.88132 2.46443 6.90831 2.44481 6.93 2.42C6.97408 2.37428 6.99911 2.3135 7 2.25V0.25C7 0.183696 6.97366 0.120107 6.92678 0.0732233C6.87989 0.0263392 6.8163 0 6.75 0L4.585 0C2.185 0 2 2.05 2 2.675V3.5H0.75C0.683696 3.5 0.620107 3.52634 0.573223 3.57322C0.526339 3.62011 0.5 3.6837 0.5 3.75V5.75C0.5 5.8163 0.526339 5.87989 0.573223 5.92678C0.620107 5.97366 0.683696 6 0.75 6H2V11.75C2 11.8163 2.02634 11.8799 2.07322 11.9268C2.12011 11.9737 2.1837 12 2.25 12H4.75C4.8163 12 4.87989 11.9737 4.92678 11.9268C4.97366 11.8799 5 11.8163 5 11.75V6H6.675C6.73719 6.00031 6.79727 5.97743 6.84349 5.93583C6.88972 5.89422 6.91878 5.83688 6.925 5.775L7.135 3.775C7.13789 3.74056 7.1336 3.70589 7.12242 3.67319C7.11123 3.64048 7.09338 3.61046 7.07 3.585Z" fill="#3B5998"/>
</svg>
