<svg width="12" height="12" viewBox="0 0 12 12" fill="none" xmlns="http://www.w3.org/2000/svg">
<path d="M8.75 0H3.25C2.38845 0.00132241 1.56257 0.344157 0.953364 0.953364C0.344157 1.56257 0.00132241 2.38845 0 3.25L0 8.75C0.00132241 9.61155 0.344157 10.4374 0.953364 11.0466C1.56257 11.6558 2.38845 11.9987 3.25 12H8.75C9.61155 11.9987 10.4374 11.6558 11.0466 11.0466C11.6558 10.4374 11.9987 9.61155 12 8.75V3.25C11.9987 2.38845 11.6558 1.56257 11.0466 0.953364C10.4374 0.344157 9.61155 0.00132241 8.75 0V0ZM6 8.75C5.4561 8.75 4.92442 8.58871 4.47218 8.28654C4.01995 7.98437 3.66747 7.55488 3.45933 7.05238C3.25119 6.54988 3.19673 5.99695 3.30284 5.4635C3.40895 4.93005 3.67086 4.44005 4.05546 4.05546C4.44005 3.67086 4.93005 3.40895 5.4635 3.30284C5.99695 3.19673 6.54988 3.25119 7.05238 3.45933C7.55488 3.66747 7.98437 4.01995 8.28654 4.47218C8.58871 4.92442 8.75 5.4561 8.75 6C8.75 6.72935 8.46027 7.42882 7.94454 7.94454C7.42882 8.46027 6.72935 8.75 6 8.75ZM9.25 3.25C9.10166 3.25 8.95666 3.20601 8.83332 3.1236C8.70999 3.04119 8.61386 2.92406 8.55709 2.78701C8.50033 2.64997 8.48547 2.49917 8.51441 2.35368C8.54335 2.2082 8.61478 2.07456 8.71967 1.96967C8.82456 1.86478 8.9582 1.79335 9.10368 1.76441C9.24917 1.73547 9.39997 1.75032 9.53701 1.80709C9.67406 1.86386 9.79119 1.95999 9.8736 2.08332C9.95601 2.20666 10 2.35166 10 2.5C10 2.69891 9.92098 2.88968 9.78033 3.03033C9.63968 3.17098 9.44891 3.25 9.25 3.25Z" fill="#E4405F"/>
</svg>
