<svg width="80" height="30" viewBox="0 0 80 30" fill="none" xmlns="http://www.w3.org/2000/svg">
<path d="M7.172 7.408H10.436L11.036 4H7.772L8.3 1.12H4.172L3.668 4H1.868L1.268 7.408H3.044L2.42 10.984C2.348 11.464 2.3 11.896 2.3 12.256C2.3 14.776 4.292 16.288 7.676 16.288C8.18 16.288 8.684 16.24 9.212 16.168L9.812 12.76H8.852C7.148 12.76 6.476 12.376 6.476 11.44C6.476 11.272 6.5 11.104 6.524 10.936L7.172 7.408ZM11.9617 9.928H18.2017L18.8017 6.472H12.5617L11.9617 9.928ZM20.2859 8.608C20.2139 13 23.7179 16.36 28.2539 16.288C31.3499 16.288 34.0139 14.872 35.7179 12.376L32.8139 10.096C31.5899 11.728 30.2219 12.496 28.5659 12.496C26.0939 12.496 24.5099 10.888 24.5099 8.416C24.5099 5.68 26.4779 3.664 29.1899 3.664C31.0379 3.664 32.3579 4.576 33.1979 6.424L36.5579 4.432C35.3819 1.528 32.7659 -0.128001 29.4299 -0.128001C24.4619 -0.224001 20.1899 3.832 20.2859 8.608ZM36.9628 10.264C36.8908 13.648 39.6748 16.36 43.1788 16.288C46.9468 16.36 50.1628 13.336 50.0908 9.76C50.1628 6.376 47.3068 3.664 43.8268 3.712C40.1068 3.64 36.8908 6.688 36.9628 10.264ZM45.8668 9.856C45.8668 11.464 44.8108 12.592 43.3468 12.592C42.0268 12.592 41.1868 11.656 41.1868 10.216C41.1868 8.608 42.2428 7.408 43.6588 7.408C44.9788 7.408 45.8668 8.392 45.8668 9.856ZM62.5334 -2L61.2614 5.104C60.5654 4.168 59.4134 3.712 57.8294 3.712C54.2774 3.64 51.3974 6.76 51.4694 10.624C51.4694 13.864 53.6774 16.288 56.6054 16.288C58.0214 16.288 59.1254 15.808 59.9174 14.872L59.7254 16H63.4934L66.6614 -2H62.5334ZM60.4454 9.856C60.4454 11.464 59.3654 12.616 57.9014 12.616C56.5814 12.616 55.7174 11.656 55.7174 10.216C55.7174 8.608 56.7734 7.408 58.2134 7.408C59.5334 7.408 60.4454 8.416 60.4454 9.856ZM78.2758 11.416C78.5878 10.648 78.7558 9.832 78.7558 8.968C78.7558 5.92 76.4758 3.712 73.3318 3.712C69.6598 3.64 66.4678 6.736 66.5638 10.36C66.5638 13.888 69.1798 16.288 72.9238 16.288C74.9158 16.288 76.4518 15.808 77.8198 14.752L76.4998 11.968C75.4198 12.568 74.3638 12.88 73.2838 12.88C71.9158 12.88 71.0518 12.4 70.6918 11.416H78.2758ZM70.6678 8.776C71.0278 7.624 71.9158 6.904 72.9958 6.904C74.1238 6.904 74.8678 7.648 74.8678 8.776H70.6678Z" fill="#333333"/>
<path d="M6.19 21.02C5.46 21.02 4.91 21.3 4.52 21.86C4.23 21.3 3.73 21.02 3.02 21.02C2.41 21.02 1.93 21.23 1.57 21.64V21.13H0.85V26H1.62V23.04C1.62 22.27 2.13 21.73 2.85 21.73C3.57 21.73 4.02 22.25 4.02 23.04V26H4.79V22.97C4.79 22.28 5.31 21.73 6.03 21.73C6.76 21.73 7.19 22.25 7.19 23.04V26H7.96V22.94C7.96 21.78 7.31 21.02 6.19 21.02ZM12.7902 21.13V24.11C12.7902 24.88 12.2602 25.4 11.5402 25.4C10.8302 25.4 10.2902 24.9 10.2902 24.11V21.13H9.53023V24.06C9.53023 24.67 9.72023 25.17 10.1002 25.55C10.4802 25.92 10.9602 26.11 11.5402 26.11C12.1202 26.11 12.6002 25.92 12.9802 25.55C13.3702 25.17 13.5602 24.67 13.5602 24.06V21.13H12.7902ZM15.1859 18.5V26H15.9559V18.5H15.1859ZM20.3069 25.35C19.5669 25.47 18.6269 25.54 18.6269 24.48V21.82H20.1469V21.13H18.6269V19.8H17.8569V21.13H17.0369V21.82H17.8569V24.53C17.8569 25.6 18.4869 26.11 19.4969 26.11C19.7269 26.11 19.9969 26.07 20.3069 26V25.35ZM21.4355 18.88C21.2055 19.09 21.2055 19.46 21.4355 19.67C21.6655 19.88 22.0355 19.88 22.2455 19.67C22.4755 19.46 22.4755 19.09 22.2455 18.88C22.0155 18.65 21.6655 18.65 21.4355 18.88ZM21.4555 21.13V26H22.2255V21.13H21.4555ZM26.1164 21.02C25.4064 21.02 24.7964 21.27 24.3064 21.76C23.8164 22.25 23.5664 22.86 23.5664 23.57C23.5664 24.28 23.8164 24.88 24.3064 25.37C24.7964 25.86 25.4064 26.11 26.1164 26.11C26.9764 26.11 27.6464 25.76 28.1164 25.05L27.5664 24.62C27.1764 25.14 26.7164 25.4 26.1764 25.4C25.6364 25.4 25.1964 25.22 24.8564 24.87C24.5264 24.52 24.3564 24.08 24.3564 23.57C24.3564 23.06 24.5264 22.62 24.8664 22.26C25.1964 21.91 25.6364 21.73 26.1764 21.73C26.7164 21.73 27.1864 21.99 27.5764 22.52L28.1264 22.08C27.6564 21.37 26.9864 21.02 26.1164 21.02ZM29.6189 21.76C29.1289 22.25 28.8789 22.85 28.8789 23.56C28.8789 24.27 29.1289 24.87 29.6189 25.36C30.1089 25.85 30.7089 26.09 31.4189 26.09C32.1289 26.1 32.7389 25.85 33.2289 25.36C33.7289 24.87 33.9789 24.27 33.9789 23.56C33.9789 22.85 33.7289 22.25 33.2289 21.76C32.7389 21.27 32.1289 21.02 31.4189 21.02C30.7089 21.02 30.1089 21.27 29.6189 21.76ZM32.6889 22.25C33.0189 22.6 33.1889 23.04 33.1889 23.56C33.1889 24.08 33.0189 24.52 32.6789 24.87C32.3389 25.22 31.9189 25.39 31.4189 25.39C30.9189 25.39 30.4989 25.22 30.1689 24.87C29.8389 24.52 29.6689 24.09 29.6589 23.57C29.6589 23.05 29.8289 22.61 30.1589 22.26C30.4989 21.91 30.9189 21.73 31.4189 21.73C31.9289 21.73 32.3489 21.9 32.6889 22.25ZM39.3624 22.94C39.3624 21.79 38.7024 21.02 37.4924 21.02C36.8924 21.02 36.4124 21.23 36.0524 21.66V21.13H35.3324V26H36.1024V23.03C36.1024 22.27 36.6324 21.73 37.3824 21.73C38.1324 21.73 38.5924 22.26 38.5924 23.03V26H39.3624V22.94ZM43.1965 21.02C42.4865 21.02 41.8765 21.27 41.3865 21.76C40.8965 22.25 40.6465 22.86 40.6465 23.57C40.6465 24.28 40.8965 24.88 41.3865 25.37C41.8765 25.86 42.4865 26.11 43.1965 26.11C44.0565 26.11 44.7265 25.76 45.1965 25.05L44.6465 24.62C44.2565 25.14 43.7965 25.4 43.2565 25.4C42.7165 25.4 42.2765 25.22 41.9365 24.87C41.6065 24.52 41.4365 24.08 41.4365 23.57C41.4365 23.06 41.6065 22.62 41.9465 22.26C42.2765 21.91 42.7165 21.73 43.2565 21.73C43.7965 21.73 44.2665 21.99 44.6565 22.52L45.2065 22.08C44.7365 21.37 44.0665 21.02 43.1965 21.02ZM50.669 23.22C50.669 22.58 50.459 22.05 50.029 21.64C49.609 21.23 49.069 21.02 48.399 21.02C47.729 21.02 47.159 21.27 46.679 21.76C46.199 22.25 45.959 22.86 45.959 23.58C45.959 24.29 46.209 24.89 46.699 25.38C47.189 25.87 47.809 26.11 48.559 26.11C49.309 26.11 49.959 25.83 50.489 25.26L50.039 24.74C49.599 25.18 49.119 25.4 48.599 25.4C48.089 25.4 47.659 25.25 47.329 24.96C46.999 24.67 46.819 24.28 46.769 23.8H50.609C50.649 23.62 50.669 23.43 50.669 23.22ZM46.799 23.12C46.959 22.28 47.619 21.72 48.429 21.72C49.239 21.72 49.869 22.25 49.879 23.12H46.799ZM54.5819 21.02C53.8119 21.02 53.1119 21.35 52.7419 21.91V21.13H52.0219V27.8H52.7919V25.29C53.1819 25.81 53.8619 26.11 54.5819 26.11C55.2719 26.11 55.8519 25.87 56.3019 25.38C56.7619 24.89 56.9919 24.29 56.9919 23.57C56.9919 22.84 56.7619 22.24 56.3019 21.75C55.8519 21.26 55.2719 21.02 54.5819 21.02ZM53.2719 24.93C52.9419 24.62 52.7819 24.16 52.7819 23.56C52.7819 22.96 52.9419 22.51 53.2719 22.2C53.6019 21.89 54.0119 21.73 54.4919 21.73C54.9819 21.73 55.3819 21.9 55.7119 22.25C56.0419 22.6 56.2019 23.04 56.2019 23.57C56.2019 24.1 56.0319 24.53 55.7019 24.88C55.3719 25.23 54.9719 25.4 54.4919 25.4C54.0119 25.4 53.6019 25.24 53.2719 24.93ZM61.0002 25.35C60.2602 25.47 59.3202 25.54 59.3202 24.48V21.82H60.8402V21.13H59.3202V19.8H58.5502V21.13H57.7302V21.82H58.5502V24.53C58.5502 25.6 59.1802 26.11 60.1902 26.11C60.4202 26.11 60.6902 26.07 61.0002 26V25.35ZM65.0116 19.4V26H68.9216V25.3H65.7916V19.4H65.0116ZM67.397 19.4V20.1H69.717V26H70.497V20.1H72.827V19.4H67.397ZM73.9276 19.4V26H75.8876C76.9876 26 77.8576 25.69 78.5076 25.07C79.1576 24.45 79.4776 23.66 79.4776 22.69C79.4776 21.72 79.1576 20.93 78.5076 20.32C77.8576 19.71 76.9876 19.4 75.8876 19.4H73.9276ZM75.8776 20.1C76.7476 20.1 77.4276 20.34 77.9176 20.82C78.4176 21.29 78.6676 21.91 78.6676 22.68C78.6676 23.45 78.4176 24.08 77.9176 24.57C77.4176 25.06 76.7376 25.3 75.8776 25.3H74.7076V20.1H75.8776Z" fill="#02B075"/>
</svg>
