<svg width="80" height="32" viewBox="0 0 80 32" fill="none" xmlns="http://www.w3.org/2000/svg">
<path d="M7.172 9.408H10.436L11.036 6H7.772L8.3 3.12H4.172L3.668 6H1.868L1.268 9.408H3.044L2.42 12.984C2.348 13.464 2.3 13.896 2.3 14.256C2.3 16.776 4.292 18.288 7.676 18.288C8.18 18.288 8.684 18.24 9.212 18.168L9.812 14.76H8.852C7.148 14.76 6.476 14.376 6.476 13.44C6.476 13.272 6.5 13.104 6.524 12.936L7.172 9.408ZM11.9617 11.928H18.2017L18.8017 8.472H12.5617L11.9617 11.928ZM20.2859 10.608C20.2139 15 23.7179 18.36 28.2539 18.288C31.3499 18.288 34.0139 16.872 35.7179 14.376L32.8139 12.096C31.5899 13.728 30.2219 14.496 28.5659 14.496C26.0939 14.496 24.5099 12.888 24.5099 10.416C24.5099 7.68 26.4779 5.664 29.1899 5.664C31.0379 5.664 32.3579 6.576 33.1979 8.424L36.5579 6.432C35.3819 3.528 32.7659 1.872 29.4299 1.872C24.4619 1.776 20.1899 5.832 20.2859 10.608ZM36.9628 12.264C36.8908 15.648 39.6748 18.36 43.1788 18.288C46.9468 18.36 50.1628 15.336 50.0908 11.76C50.1628 8.376 47.3068 5.664 43.8268 5.712C40.1068 5.64 36.8908 8.688 36.9628 12.264ZM45.8668 11.856C45.8668 13.464 44.8108 14.592 43.3468 14.592C42.0268 14.592 41.1868 13.656 41.1868 12.216C41.1868 10.608 42.2428 9.408 43.6588 9.408C44.9788 9.408 45.8668 10.392 45.8668 11.856ZM62.5334 -1.43051e-06L61.2614 7.104C60.5654 6.168 59.4134 5.712 57.8294 5.712C54.2774 5.64 51.3974 8.76 51.4694 12.624C51.4694 15.864 53.6774 18.288 56.6054 18.288C58.0214 18.288 59.1254 17.808 59.9174 16.872L59.7254 18H63.4934L66.6614 -1.43051e-06H62.5334ZM60.4454 11.856C60.4454 13.464 59.3654 14.616 57.9014 14.616C56.5814 14.616 55.7174 13.656 55.7174 12.216C55.7174 10.608 56.7734 9.408 58.2134 9.408C59.5334 9.408 60.4454 10.416 60.4454 11.856ZM78.2758 13.416C78.5878 12.648 78.7558 11.832 78.7558 10.968C78.7558 7.92 76.4758 5.712 73.3318 5.712C69.6598 5.64 66.4678 8.736 66.5638 12.36C66.5638 15.888 69.1798 18.288 72.9238 18.288C74.9158 18.288 76.4518 17.808 77.8198 16.752L76.4998 13.968C75.4198 14.568 74.3638 14.88 73.2838 14.88C71.9158 14.88 71.0518 14.4 70.6918 13.416H78.2758ZM70.6678 10.776C71.0278 9.624 71.9158 8.904 72.9958 8.904C74.1238 8.904 74.8678 9.648 74.8678 10.776H70.6678Z" fill="white"/>
<path d="M6.19 23.02C5.46 23.02 4.91 23.3 4.52 23.86C4.23 23.3 3.73 23.02 3.02 23.02C2.41 23.02 1.93 23.23 1.57 23.64V23.13H0.85V28H1.62V25.04C1.62 24.27 2.13 23.73 2.85 23.73C3.57 23.73 4.02 24.25 4.02 25.04V28H4.79V24.97C4.79 24.28 5.31 23.73 6.03 23.73C6.76 23.73 7.19 24.25 7.19 25.04V28H7.96V24.94C7.96 23.78 7.31 23.02 6.19 23.02ZM12.7902 23.13V26.11C12.7902 26.88 12.2602 27.4 11.5402 27.4C10.8302 27.4 10.2902 26.9 10.2902 26.11V23.13H9.53023V26.06C9.53023 26.67 9.72023 27.17 10.1002 27.55C10.4802 27.92 10.9602 28.11 11.5402 28.11C12.1202 28.11 12.6002 27.92 12.9802 27.55C13.3702 27.17 13.5602 26.67 13.5602 26.06V23.13H12.7902ZM15.1859 20.5V28H15.9559V20.5H15.1859ZM20.3069 27.35C19.5669 27.47 18.6269 27.54 18.6269 26.48V23.82H20.1469V23.13H18.6269V21.8H17.8569V23.13H17.0369V23.82H17.8569V26.53C17.8569 27.6 18.4869 28.11 19.4969 28.11C19.7269 28.11 19.9969 28.07 20.3069 28V27.35ZM21.4355 20.88C21.2055 21.09 21.2055 21.46 21.4355 21.67C21.6655 21.88 22.0355 21.88 22.2455 21.67C22.4755 21.46 22.4755 21.09 22.2455 20.88C22.0155 20.65 21.6655 20.65 21.4355 20.88ZM21.4555 23.13V28H22.2255V23.13H21.4555ZM26.1164 23.02C25.4064 23.02 24.7964 23.27 24.3064 23.76C23.8164 24.25 23.5664 24.86 23.5664 25.57C23.5664 26.28 23.8164 26.88 24.3064 27.37C24.7964 27.86 25.4064 28.11 26.1164 28.11C26.9764 28.11 27.6464 27.76 28.1164 27.05L27.5664 26.62C27.1764 27.14 26.7164 27.4 26.1764 27.4C25.6364 27.4 25.1964 27.22 24.8564 26.87C24.5264 26.52 24.3564 26.08 24.3564 25.57C24.3564 25.06 24.5264 24.62 24.8664 24.26C25.1964 23.91 25.6364 23.73 26.1764 23.73C26.7164 23.73 27.1864 23.99 27.5764 24.52L28.1264 24.08C27.6564 23.37 26.9864 23.02 26.1164 23.02ZM29.6189 23.76C29.1289 24.25 28.8789 24.85 28.8789 25.56C28.8789 26.27 29.1289 26.87 29.6189 27.36C30.1089 27.85 30.7089 28.09 31.4189 28.09C32.1289 28.1 32.7389 27.85 33.2289 27.36C33.7289 26.87 33.9789 26.27 33.9789 25.56C33.9789 24.85 33.7289 24.25 33.2289 23.76C32.7389 23.27 32.1289 23.02 31.4189 23.02C30.7089 23.02 30.1089 23.27 29.6189 23.76ZM32.6889 24.25C33.0189 24.6 33.1889 25.04 33.1889 25.56C33.1889 26.08 33.0189 26.52 32.6789 26.87C32.3389 27.22 31.9189 27.39 31.4189 27.39C30.9189 27.39 30.4989 27.22 30.1689 26.87C29.8389 26.52 29.6689 26.09 29.6589 25.57C29.6589 25.05 29.8289 24.61 30.1589 24.26C30.4989 23.91 30.9189 23.73 31.4189 23.73C31.9289 23.73 32.3489 23.9 32.6889 24.25ZM39.3624 24.94C39.3624 23.79 38.7024 23.02 37.4924 23.02C36.8924 23.02 36.4124 23.23 36.0524 23.66V23.13H35.3324V28H36.1024V25.03C36.1024 24.27 36.6324 23.73 37.3824 23.73C38.1324 23.73 38.5924 24.26 38.5924 25.03V28H39.3624V24.94ZM43.1965 23.02C42.4865 23.02 41.8765 23.27 41.3865 23.76C40.8965 24.25 40.6465 24.86 40.6465 25.57C40.6465 26.28 40.8965 26.88 41.3865 27.37C41.8765 27.86 42.4865 28.11 43.1965 28.11C44.0565 28.11 44.7265 27.76 45.1965 27.05L44.6465 26.62C44.2565 27.14 43.7965 27.4 43.2565 27.4C42.7165 27.4 42.2765 27.22 41.9365 26.87C41.6065 26.52 41.4365 26.08 41.4365 25.57C41.4365 25.06 41.6065 24.62 41.9465 24.26C42.2765 23.91 42.7165 23.73 43.2565 23.73C43.7965 23.73 44.2665 23.99 44.6565 24.52L45.2065 24.08C44.7365 23.37 44.0665 23.02 43.1965 23.02ZM50.669 25.22C50.669 24.58 50.459 24.05 50.029 23.64C49.609 23.23 49.069 23.02 48.399 23.02C47.729 23.02 47.159 23.27 46.679 23.76C46.199 24.25 45.959 24.86 45.959 25.58C45.959 26.29 46.209 26.89 46.699 27.38C47.189 27.87 47.809 28.11 48.559 28.11C49.309 28.11 49.959 27.83 50.489 27.26L50.039 26.74C49.599 27.18 49.119 27.4 48.599 27.4C48.089 27.4 47.659 27.25 47.329 26.96C46.999 26.67 46.819 26.28 46.769 25.8H50.609C50.649 25.62 50.669 25.43 50.669 25.22ZM46.799 25.12C46.959 24.28 47.619 23.72 48.429 23.72C49.239 23.72 49.869 24.25 49.879 25.12H46.799ZM54.5819 23.02C53.8119 23.02 53.1119 23.35 52.7419 23.91V23.13H52.0219V29.8H52.7919V27.29C53.1819 27.81 53.8619 28.11 54.5819 28.11C55.2719 28.11 55.8519 27.87 56.3019 27.38C56.7619 26.89 56.9919 26.29 56.9919 25.57C56.9919 24.84 56.7619 24.24 56.3019 23.75C55.8519 23.26 55.2719 23.02 54.5819 23.02ZM53.2719 26.93C52.9419 26.62 52.7819 26.16 52.7819 25.56C52.7819 24.96 52.9419 24.51 53.2719 24.2C53.6019 23.89 54.0119 23.73 54.4919 23.73C54.9819 23.73 55.3819 23.9 55.7119 24.25C56.0419 24.6 56.2019 25.04 56.2019 25.57C56.2019 26.1 56.0319 26.53 55.7019 26.88C55.3719 27.23 54.9719 27.4 54.4919 27.4C54.0119 27.4 53.6019 27.24 53.2719 26.93ZM61.0002 27.35C60.2602 27.47 59.3202 27.54 59.3202 26.48V23.82H60.8402V23.13H59.3202V21.8H58.5502V23.13H57.7302V23.82H58.5502V26.53C58.5502 27.6 59.1802 28.11 60.1902 28.11C60.4202 28.11 60.6902 28.07 61.0002 28V27.35ZM65.0116 21.4V28H68.9216V27.3H65.7916V21.4H65.0116ZM67.397 21.4V22.1H69.717V28H70.497V22.1H72.827V21.4H67.397ZM73.9276 21.4V28H75.8876C76.9876 28 77.8576 27.69 78.5076 27.07C79.1576 26.45 79.4776 25.66 79.4776 24.69C79.4776 23.72 79.1576 22.93 78.5076 22.32C77.8576 21.71 76.9876 21.4 75.8876 21.4H73.9276ZM75.8776 22.1C76.7476 22.1 77.4276 22.34 77.9176 22.82C78.4176 23.29 78.6676 23.91 78.6676 24.68C78.6676 25.45 78.4176 26.08 77.9176 26.57C77.4176 27.06 76.7376 27.3 75.8776 27.3H74.7076V22.1H75.8776Z" fill="#02B075"/>
</svg>
