<svg width="12" height="10" viewBox="0 0 12 10" fill="none" xmlns="http://www.w3.org/2000/svg">
<path d="M11.66 2.22C11.6956 2.19043 11.7223 2.15156 11.7371 2.10773C11.7519 2.0639 11.7542 2.01682 11.7439 1.97173C11.7335 1.92664 11.7108 1.88532 11.6784 1.85235C11.6459 1.81938 11.6049 1.79607 11.56 1.785L11.165 1.685C11.1291 1.67601 11.0956 1.65915 11.067 1.63565C11.0384 1.61214 11.0154 1.58258 10.9996 1.54909C10.9838 1.5156 10.9757 1.47902 10.9757 1.442C10.9758 1.40497 10.9841 1.36843 11 1.335L11.22 0.889999C11.2408 0.846878 11.2488 0.798696 11.243 0.751181C11.2372 0.703665 11.2179 0.658812 11.1873 0.621952C11.1568 0.585093 11.1163 0.557776 11.0707 0.543249C11.0251 0.528721 10.9763 0.527593 10.93 0.539999L9.93002 0.819999C9.89276 0.830866 9.85348 0.832909 9.8153 0.825966C9.77711 0.819024 9.74107 0.803286 9.71002 0.779999C9.27728 0.455443 8.75095 0.279999 8.21002 0.279999C7.54698 0.279999 6.91109 0.543391 6.44225 1.01223C5.97341 1.48107 5.71002 2.11696 5.71002 2.78V2.96C5.71024 2.99071 5.69915 3.02043 5.67886 3.04348C5.65857 3.06654 5.63051 3.08131 5.60002 3.085C4.19502 3.25 2.85002 2.535 1.40002 0.864999C1.36852 0.830259 1.32805 0.804878 1.28307 0.791647C1.23808 0.778415 1.19031 0.777845 1.14502 0.789999C1.10422 0.808753 1.06922 0.838151 1.04371 0.875104C1.01819 0.912056 1.0031 0.955199 1.00002 0.999999C0.799749 1.82267 0.88072 2.68871 1.23002 3.46C1.24036 3.48046 1.24487 3.50336 1.24306 3.52621C1.24126 3.54906 1.2332 3.57097 1.21979 3.58955C1.20637 3.60813 1.1881 3.62267 1.16697 3.63156C1.14585 3.64046 1.12269 3.64338 1.10002 3.64L0.54002 3.53C0.500251 3.52361 0.459526 3.52692 0.421312 3.53965C0.383097 3.55238 0.348525 3.57416 0.320538 3.60313C0.292551 3.6321 0.271978 3.6674 0.260571 3.70603C0.249163 3.74466 0.247259 3.78547 0.25502 3.825C0.29819 4.20872 0.427107 4.57783 0.63223 4.90498C0.837353 5.23214 1.11343 5.50898 1.44002 5.715C1.46115 5.72524 1.47898 5.74122 1.49145 5.76111C1.50392 5.78101 1.51053 5.80402 1.51053 5.8275C1.51053 5.85098 1.50392 5.87399 1.49145 5.89389C1.47898 5.91378 1.46115 5.92976 1.44002 5.94L1.17502 6.045C1.14284 6.0579 1.11369 6.07736 1.08943 6.10213C1.06517 6.1269 1.04633 6.15645 1.03411 6.18889C1.02188 6.22134 1.01654 6.25597 1.01842 6.2906C1.02029 6.32522 1.02935 6.35907 1.04502 6.39C1.19157 6.71066 1.4137 6.991 1.69237 7.20697C1.97104 7.42294 2.29793 7.5681 2.64502 7.63C2.66915 7.63876 2.69 7.65473 2.70474 7.67576C2.71947 7.69678 2.72737 7.72183 2.72737 7.7475C2.72737 7.77317 2.71947 7.79822 2.70474 7.81924C2.69 7.84027 2.66915 7.85624 2.64502 7.865C1.9652 8.14617 1.23565 8.28732 0.50002 8.28C0.433716 8.26674 0.36486 8.28036 0.308599 8.31787C0.252338 8.35538 0.213281 8.4137 0.20002 8.48C0.18676 8.5463 0.200381 8.61516 0.237888 8.67142C0.275396 8.72768 0.333716 8.76674 0.40002 8.78C1.67379 9.38412 3.06061 9.71294 4.47002 9.745C5.70975 9.76391 6.92741 9.416 7.97002 8.745C8.82763 8.17252 9.53028 7.39675 10.0153 6.48683C10.5004 5.57692 10.7528 4.56112 10.75 3.53V3.095C10.7503 3.05869 10.7585 3.02289 10.7741 2.99008C10.7896 2.95727 10.8121 2.92823 10.84 2.905L11.66 2.22Z" fill="#00ACEE"/>
</svg>
